<svg xmlns="http://www.w3.org/2000/svg" viewBox="0 0 409.6 409.6"><defs><style>.cls-1{fill:#fff;}</style></defs><g id="Capa_2" data-name="Capa 2"><g id="Capa_1-2" data-name="Capa 1"><path class="cls-1" d="M409.6,130.69c-1.74-6.59-3.46-13.19-5.22-19.77-12.7-47.72-55.44-83.5-104.68-88.36-33.14-3.27-62.51,5.59-88.42,26.06-4.47,3.52-7,3.38-11.43-.08C127.42-8.53,23.19,29.05,4.15,119.21c-7,33.17,1,64.27,15.7,93.94C41.41,256.77,73.37,292,110,323.27a467.5,467.5,0,0,0,89,59.85c3,1.55,8.06,2.12,10.83.64C272.25,350.5,327,308,368.51,250c19.66-27.47,34.82-57,39.26-91.1A37.14,37.14,0,0,1,409.6,153V409.6H0V0H409.6Z"/><path class="cls-1" d="M352.11,133.18c.17,11.28-8.66,20.68-19.57,20.86S312.41,145,312.38,133.8a19.87,19.87,0,1,1,39.73-.62Z"/><path class="cls-1" d="M331.83,87.44c-.22,6.53-3.58,10.12-9.7,10.75a10,10,0,0,1-10.73-10.3c.39-6.1,3.75-10,10.12-10S331.15,81.46,331.83,87.44Z"/></g></g></svg>