<?xml version="1.0" encoding="utf-8"?>
<!-- Generator: Adobe Illustrator 25.2.1, SVG Export Plug-In . SVG Version: 6.00 Build 0)  -->
<svg version="1.1" id="Capa_1" xmlns="http://www.w3.org/2000/svg" xmlns:xlink="http://www.w3.org/1999/xlink" x="0px" y="0px"
	 viewBox="0 0 511 511" style="enable-background:new 0 0 511 511;" xml:space="preserve">
<style type="text/css">
	.st0{fill:#FFFFFF;}
</style>
<g id="Capa_2_1_">
	<g id="Capa_1-2">
		<path class="st0" d="M511,322.1V511H0V0h511v312.2c-10.3-12.6-16.7-13.1-29.6-2.4c-48.9,40.5-104.5,55.2-167,44
			c-87.4-15.8-156-95.2-159.6-183.9c-2.1-53.1,13.8-99.7,48.1-140.2c2.5-3,5.1-6.4,6-10c3.4-13.4-8-21.2-23.7-16.5
			C67.9,38.2-8.8,154.8,3.4,277.6C16,405.4,129.9,523.8,288.2,508.3c80.3-7.9,144.1-47.4,188.6-114.9
			C491.1,371.5,499.8,346,511,322.1z M322.3,267.8c5.8-5.4,12.3-8.6,14-13.5c9.1-25.6,26.1-42.3,51.6-51.6c4.5-1.6,9.5-9.3,9.5-14.1
			s-5-12.5-9.5-14.2c-25.7-9.2-42.4-26.1-51.6-51.6c-1.6-4.3-9.5-8.7-14.5-8.8c-4.6-0.1-12.1,4.6-13.5,8.8
			c-9.2,26.1-26.7,42.7-52.4,52.1c-4.2,1.5-8.7,8.9-8.8,13.6s4.4,12.2,8.6,13.7c26.3,9.4,43.7,26.5,52.9,53
			C310,259.7,316.5,262.6,322.3,267.8z M459.8,52c-1.5-11.8,3.2-28.8-15.2-29.3C425.1,22.2,430,39.8,428.4,52
			c-11.9,2.2-29.2-3.3-29.6,15.3c-0.4,19.9,17.9,14.4,29.4,16.8c2.4,24,5.1,29.7,15.3,29.1c19.9-1,14.6-17.3,16.3-29.6
			c12-1.4,28.7,3.5,29.2-15.2C489.6,48.4,471.7,54.5,459.8,52z"/>
	</g>
</g>
</svg>
