<svg xmlns="http://www.w3.org/2000/svg" viewBox="0 0 340.13 324.74"><g id="Capa_2" data-name="Capa 2"><g id="Capa_1-2" data-name="Capa 1"><path d="M60.8,310.19l10-58.28c2.16-12.54,4.2-25.12,6.6-37.62.9-4.7-.41-7.83-3.86-11.15C51,181.5,28.73,159.6,6.32,137.83,2,133.65-1.56,129.34.7,122.78s7.51-7.9,13.54-8.74c31.39-4.42,62.79-8.89,94.11-13.8,2.94-.46,6.46-3.6,7.88-6.42,14-27.62,27.56-55.42,41.17-83.21C160.14,5,163.05.05,170.37,0s10.36,4.72,13.13,10.38c13.61,27.79,27.4,55.49,40.93,83.33,2.06,4.22,4.5,6.34,9.41,7,31.66,4.3,63.28,9,94.91,13.56,5.58.81,11,3.08,11.36,9,.24,4.36-1.39,10.16-4.37,13.16C313.38,159,290.56,181,267.67,203c-3.65,3.52-4.85,6.9-4,11.82,5.39,30.23,10.57,60.5,15.79,90.76,1.08,6.24,2.21,12.61-4.12,17-5.89,4.1-11.31,1.59-16.8-1.32-27.35-14.49-54.8-28.8-82.09-43.39-4.2-2.24-7.49-2.31-11.74,0q-42.27,22.59-84.8,44.67C69.52,327.92,60.46,322.66,60.8,310.19Z"/></g></g></svg>